<?xml version="1.0" standalone="no"?>
<!DOCTYPE svg PUBLIC "-//W3C//DTD SVG 20010904//EN"
 "http://www.w3.org/TR/2001/REC-SVG-20010904/DTD/svg10.dtd">
<svg version="1.0" xmlns="http://www.w3.org/2000/svg"
 width="150.000000pt" height="150.000000pt" viewBox="0 0 150.000000 150.000000"
 preserveAspectRatio="xMidYMid meet">
<metadata>
Created by potrace 1.14, written by Peter Selinger 2001-2017
</metadata>
<g transform="translate(0.000000,150.000000) scale(0.100000,-0.100000)"
fill="#000000" stroke="none">
<path d="M295 1482 c-120 -42 -205 -117 -258 -230 l-32 -67 -3 -397 c-2 -246
1 -419 7 -454 29 -157 161 -289 321 -324 39 -8 174 -11 455 -8 368 3 404 5
445 22 108 46 176 111 228 215 l37 75 0 435 0 436 -32 67 c-44 94 -109 160
-202 206 l-75 37 -420 2 c-378 2 -426 1 -471 -15z"/>
</g>
</svg>
