<?xml version="1.0" standalone="no"?>
<!DOCTYPE svg PUBLIC "-//W3C//DTD SVG 20010904//EN"
 "http://www.w3.org/TR/2001/REC-SVG-20010904/DTD/svg10.dtd">
<svg version="1.0" xmlns="http://www.w3.org/2000/svg"
 width="513.000000pt" height="513.000000pt" viewBox="0 0 513.000000 513.000000"
 preserveAspectRatio="xMidYMid meet">
<metadata>
Created by potrace 1.14, written by Peter Selinger 2001-2017
</metadata>
<g transform="translate(0.000000,513.000000) scale(0.100000,-0.100000)"
fill="#000000" stroke="none">
<path d="M1285 4700 c-27 -4 -70 -11 -94 -15 -164 -25 -367 -109 -541 -224
-106 -70 -308 -269 -375 -371 -97 -146 -195 -372 -220 -505 -23 -123 -27 -166
-28 -285 -3 -252 36 -433 139 -647 57 -119 138 -240 172 -257 52 -27 97 -26
154 3 57 29 96 51 112 64 6 4 150 94 321 199 171 105 355 219 410 253 370 232
1135 700 1162 712 45 18 131 18 176 -1 21 -8 59 -29 83 -46 25 -16 47 -30 49
-30 2 0 72 -43 155 -95 83 -52 153 -95 156 -95 3 0 10 -5 17 -10 7 -6 129 -83
272 -170 143 -88 267 -164 275 -170 8 -5 40 -24 70 -42 30 -17 57 -35 60 -38
3 -3 31 -22 64 -41 32 -19 69 -41 82 -49 13 -8 74 -46 136 -84 62 -39 221
-137 352 -219 208 -129 247 -150 291 -154 68 -7 103 12 157 85 93 125 185 344
223 532 21 98 19 463 -2 565 -113 546 -540 982 -1088 1111 -127 30 -413 40
-540 19 -278 -47 -547 -179 -756 -372 -31 -29 -72 -59 -90 -67 -62 -25 -127
-8 -184 48 -56 54 -141 124 -201 163 -69 46 -96 62 -154 90 -129 62 -276 112
-384 129 -21 3 -48 8 -60 11 -37 9 -319 11 -371 3z"/>
<path d="M2485 3014 c-27 -7 -61 -19 -75 -26 -30 -15 -937 -572 -1030 -633
-36 -23 -70 -44 -75 -46 -40 -16 -409 -256 -425 -276 -40 -51 -46 -123 -15
-182 7 -14 301 -312 652 -662 584 -582 644 -639 710 -672 188 -97 360 -117
558 -66 53 14 155 63 213 102 62 42 1285 1264 1306 1306 31 59 15 152 -32 194
-9 8 -132 85 -272 172 -327 202 -371 229 -450 280 -36 23 -72 44 -80 48 -8 4
-31 17 -51 30 -20 12 -148 91 -285 176 -137 85 -271 168 -299 186 -114 74
-238 99 -350 69z m15 -767 c32 -15 41 -48 42 -155 1 -114 -8 -146 -47 -159
-31 -11 -217 -11 -241 0 -34 15 -44 50 -44 155 0 120 5 137 41 154 30 15 219
18 249 5z m436 -20 c23 -27 24 -34 21 -142 -3 -155 -7 -159 -155 -161 -119 -2
-155 10 -170 55 -10 31 -9 196 2 229 13 39 50 49 168 48 107 -1 110 -2 134
-29z m-436 -397 c34 -18 43 -50 43 -157 -1 -154 -18 -170 -183 -166 -47 1 -89
2 -93 2 -4 1 -19 12 -32 26 -24 23 -25 30 -25 138 0 107 1 116 25 141 23 25
28 26 135 26 61 0 120 -5 130 -10z m406 4 c39 -10 53 -52 53 -158 0 -107 -13
-150 -51 -162 -12 -3 -69 -6 -127 -6 -103 0 -106 1 -131 29 -25 27 -26 33 -24
142 1 111 2 115 28 138 25 21 37 23 129 23 56 0 111 -3 123 -6z"/>
</g>
</svg>
