<?xml version="1.0" standalone="no"?>
<!DOCTYPE svg PUBLIC "-//W3C//DTD SVG 20010904//EN"
 "http://www.w3.org/TR/2001/REC-SVG-20010904/DTD/svg10.dtd">
<svg version="1.0" xmlns="http://www.w3.org/2000/svg"
 width="307.000000pt" height="307.000000pt" viewBox="0 0 307.000000 307.000000"
 preserveAspectRatio="xMidYMid meet">
<metadata>
Created by potrace 1.14, written by Peter Selinger 2001-2017
</metadata>
<g transform="translate(0.000000,307.000000) scale(0.100000,-0.100000)"
fill="#000000" stroke="none">
<path d="M758 2815 c-2 -2 -21 -5 -43 -9 -252 -36 -499 -216 -618 -451 -69
-136 -88 -214 -92 -371 -3 -117 4 -176 36 -285 13 -44 83 -192 104 -217 25
-33 57 -56 80 -59 32 -5 45 2 339 185 1001 619 921 572 969 572 45 0 47 -1
197 -94 63 -39 123 -75 133 -81 24 -14 389 -240 452 -280 28 -18 106 -66 175
-108 69 -42 130 -81 137 -87 7 -5 15 -10 18 -10 3 0 32 -18 65 -39 84 -56 119
-67 155 -50 68 32 170 246 191 397 10 75 11 202 2 251 -5 25 -11 58 -13 74 -3
15 -13 49 -21 75 -98 286 -315 487 -616 569 -94 26 -317 23 -420 -5 -107 -29
-231 -92 -308 -157 -132 -111 -156 -117 -223 -57 -184 165 -395 247 -624 241
-40 -1 -74 -3 -75 -4z"/>
<path d="M1440 1793 c-19 -8 -57 -30 -85 -47 -27 -18 -155 -98 -284 -177 -517
-318 -556 -343 -569 -372 -31 -64 -28 -67 391 -483 307 -306 403 -396 442
-414 153 -71 328 -57 450 36 72 54 785 772 787 792 0 9 2 24 3 32 4 41 -29 70
-192 171 -92 57 -173 105 -180 107 -7 2 -13 8 -13 13 0 5 -4 9 -10 9 -5 0 -42
21 -82 47 -187 119 -456 281 -487 291 -46 16 -128 14 -171 -5z m57 -462 c14
-19 17 -139 4 -160 -6 -10 -33 -16 -81 -18 -97 -5 -110 6 -110 96 0 36 4 72 9
80 19 30 156 32 178 2z m247 4 c11 -12 15 -35 15 -86 -1 -60 -4 -72 -22 -83
-32 -20 -141 -20 -161 0 -22 22 -22 146 0 168 22 22 146 22 168 1z m-250 -251
c11 -11 16 -35 16 -81 0 -91 -12 -103 -101 -103 -89 0 -99 10 -99 100 0 90 10
100 100 100 49 0 73 -4 84 -16z m246 6 c9 -6 16 -32 18 -78 6 -94 -11 -112
-102 -112 -87 0 -96 10 -96 105 0 60 3 76 18 84 21 13 142 14 162 1z"/>
</g>
</svg>
